<?xml version="1.0" standalone="no"?>
<svg viewBox="0 0 200 200" xmlns="http://www.w3.org/2000/svg">
  <path fill="#FFCF01" d="M44.6,-66.1C59.3,-59.9,73.9,-50.2,81.1,-36.4C88.2,-22.7,88.1,-5,85.7,12.4C83.3,29.8,78.7,47,67.7,57.4C56.8,67.8,39.4,71.4,22.4,76.4C5.5,81.5,-11.1,87.9,-25.2,84.4C-39.4,81,-51,67.7,-60.9,54C-70.7,40.4,-78.7,26.4,-82.4,10.9C-86,-4.6,-85.3,-21.6,-79.6,-37.2C-73.8,-52.8,-63,-67,-48.9,-73.5C-34.8,-79.9,-17.4,-78.6,-1.2,-76.6C14.9,-74.7,29.9,-72.2,44.6,-66.1Z" transform="translate(100 100)" />
</svg>
