<?xml version="1.0" standalone="no"?>
<svg viewBox="0 0 200 200" xmlns="http://www.w3.org/2000/svg">
  <path fill="#FFCF01" d="M42.4,-60.9C56.5,-56.9,70.7,-47.8,73,-35.5C75.3,-23.1,65.8,-7.5,58.7,5.1C51.6,17.6,47,27.2,41.4,38.5C35.7,49.8,29,62.9,18.9,67.1C8.8,71.4,-4.7,66.8,-16.9,61.4C-29,56.1,-39.8,49.9,-52,41.8C-64.2,33.6,-77.8,23.4,-79.7,11.3C-81.7,-0.7,-72,-14.6,-64.5,-28.8C-57,-43.1,-51.7,-57.7,-41.4,-63.5C-31,-69.2,-15.5,-66.1,-0.7,-65C14.1,-63.9,28.2,-64.9,42.4,-60.9Z" transform="translate(100 100)" />
</svg>
