<?xml version="1.0"?><svg fill="#000000" xmlns="http://www.w3.org/2000/svg"  viewBox="0 0 100 100" width="100px" height="100px">    <path d="M 30.228516 16 C 23.060516 16 17.228516 21.832 17.228516 29 L 17.228516 68 C 17.228516 75.168 23.060516 81 30.228516 81 L 69.228516 81 C 76.396516 81 82.228516 75.168 82.228516 68 L 82.228516 29 C 82.228516 21.832 76.396516 16 69.228516 16 L 30.228516 16 z M 30.228516 18 L 69.228516 18 C 75.293516 18 80.228516 22.935 80.228516 29 L 80.228516 68 C 80.228516 74.065 75.293516 79 69.228516 79 L 30.228516 79 C 24.163516 79 19.228516 74.065 19.228516 68 L 19.228516 29 C 19.228516 22.935 24.163516 18 30.228516 18 z M 33.064453 21 C 27.088453 21 22.228516 25.861891 22.228516 31.837891 L 22.228516 65.162109 C 22.228516 71.138109 27.089453 76 33.064453 76 L 66.390625 76 C 72.366625 76 77.228516 71.138109 77.228516 65.162109 L 77.228516 46.5 C 77.228516 46.224 77.005516 46 76.728516 46 C 76.452516 46 76.228516 46.224 76.228516 46.5 L 76.228516 65.162109 C 76.228516 70.586109 71.814625 75 66.390625 75 L 33.064453 75 C 27.640453 75 23.228516 70.586109 23.228516 65.162109 L 23.228516 31.837891 C 23.228516 26.413891 27.640453 22 33.064453 22 L 66.728516 22 C 67.004516 22 67.228516 21.776 67.228516 21.5 C 67.228516 21.224 67.004516 21 66.728516 21 L 33.064453 21 z M 50.431641 33 C 40.895641 33 36.552734 39.349047 36.552734 45.248047 C 36.552734 48.203047 38.202937 51.991844 40.960938 53.214844 C 41.091938 53.273844 41.485328 53.451625 41.861328 53.265625 C 42.096328 53.150625 42.256125 52.931859 42.328125 52.630859 C 42.375125 52.457859 42.526828 51.865875 42.673828 51.296875 L 42.898438 50.421875 C 42.993437 50.047875 42.912203 49.709969 42.658203 49.417969 C 41.843203 48.469969 41.271484 46.785266 41.271484 45.322266 C 41.271484 41.480266 44.300062 37.396484 49.914062 37.396484 C 54.602063 37.396484 57.876953 40.438016 57.876953 44.791016 C 57.876953 49.648016 55.409672 53.173828 52.013672 53.173828 C 51.138672 53.173828 50.362766 52.82575 49.884766 52.21875 C 49.462766 51.68275 49.324094 50.993203 49.496094 50.283203 C 49.699094 49.457203 49.977094 48.598578 50.246094 47.767578 C 50.732094 46.262578 51.191406 44.841125 51.191406 43.703125 C 51.191406 41.771125 49.963766 40.472656 48.134766 40.472656 C 45.796766 40.472656 43.964844 42.764406 43.964844 45.691406 C 43.964844 47.132406 44.363969 48.211094 44.542969 48.621094 C 44.252969 49.799094 42.551891 56.710609 42.212891 58.099609 C 41.591891 60.637609 42.221469 64.619344 42.355469 65.402344 C 42.409469 65.689344 42.621531 65.915469 42.894531 65.980469 C 42.949531 65.993469 43.004594 66 43.058594 66 C 43.276594 66 43.484953 65.897891 43.626953 65.712891 C 43.960953 65.274891 46.333719 61.803781 47.011719 59.300781 C 47.178719 58.684781 47.692766 56.797766 48.009766 55.634766 C 49.034766 56.620766 50.730594 57.273438 52.433594 57.273438 C 58.711594 57.273438 63.445312 51.869172 63.445312 44.701172 C 63.420313 38.030172 57.825641 33 50.431641 33 z M 50.431641 33.998047 C 57.256641 33.998047 62.421313 38.601125 62.445312 44.703125 C 62.445312 51.298125 58.139641 56.273437 52.431641 56.273438 C 50.402641 56.273438 48.749609 55.261594 48.224609 54.308594 C 48.127609 54.129594 47.932516 54.029734 47.728516 54.052734 C 47.525516 54.076734 47.358688 54.220969 47.304688 54.417969 C 47.304688 54.417969 46.291922 58.125062 46.044922 59.039062 C 45.544922 60.882063 43.992469 63.39025 43.230469 64.53125 C 43.031469 63.13325 42.715594 60.250891 43.183594 58.337891 C 43.554594 56.817891 45.556641 48.689453 45.556641 48.689453 C 45.585641 48.572453 45.570625 48.447844 45.515625 48.339844 C 45.509625 48.328844 44.964844 47.252406 44.964844 45.691406 C 44.964844 43.325406 46.357766 41.472656 48.134766 41.472656 C 50.043766 41.472656 50.191406 43.180125 50.191406 43.703125 C 50.191406 44.683125 49.755922 46.031984 49.294922 47.458984 C 49.021922 48.306984 48.738391 49.184875 48.525391 50.046875 C 48.280391 51.063875 48.482656 52.053938 49.097656 52.835938 C 49.766656 53.685938 50.829672 54.171875 52.013672 54.171875 C 55.990672 54.171875 58.875 50.225063 58.875 44.789062 C 58.875 39.847062 55.188109 36.396484 49.912109 36.396484 C 43.649109 36.396484 40.271484 40.994313 40.271484 45.320312 C 40.271484 47.028312 40.924438 48.938312 41.898438 50.070312 C 41.899437 50.070312 41.929688 50.172828 41.929688 50.173828 L 41.703125 51.046875 C 41.580125 51.524875 41.453953 52.018688 41.376953 52.304688 C 41.374953 52.303688 41.372141 52.302781 41.369141 52.300781 C 39.011141 51.254781 37.552734 47.824094 37.552734 45.246094 C 37.552734 39.829094 41.582641 33.998047 50.431641 33.998047 z M 76.728516 36 C 76.452516 36 76.228516 36.224 76.228516 36.5 L 76.228516 38.5 C 76.228516 38.776 76.452516 39 76.728516 39 C 77.004516 39 77.228516 38.776 77.228516 38.5 L 77.228516 36.5 C 77.228516 36.224 77.004516 36 76.728516 36 z M 76.728516 40 C 76.452516 40 76.228516 40.224 76.228516 40.5 L 76.228516 44.5 C 76.228516 44.776 76.452516 45 76.728516 45 C 77.004516 45 77.228516 44.776 77.228516 44.5 L 77.228516 40.5 C 77.228516 40.224 77.005516 40 76.728516 40 z"/></svg>