<?xml version="1.0" standalone="no"?>
<svg viewBox="0 0 200 200" xmlns="http://www.w3.org/2000/svg">
  <path fill="#F15D5D" d="M44.4,-76.7C58.5,-68.7,71.7,-58.8,76.3,-45.7C80.9,-32.7,77,-16.3,75.9,-0.6C74.8,15,76.5,30.1,69.8,39.6C63.1,49.2,48.1,53.2,35.1,56.4C22,59.5,11,61.8,-1.5,64.3C-14,66.8,-27.9,69.7,-39.2,65.6C-50.5,61.4,-59.2,50.3,-68.6,38.2C-77.9,26.1,-88,13.1,-88.4,-0.2C-88.8,-13.5,-79.5,-27,-70.7,-40.2C-62,-53.3,-53.8,-66.1,-42.1,-75.6C-30.4,-85.1,-15.2,-91.2,0,-91.1C15.1,-91.1,30.2,-84.8,44.4,-76.7Z" transform="translate(100 100)" />
</svg>
