<?xml version="1.0" standalone="no"?>
<svg viewBox="0 0 200 200" xmlns="http://www.w3.org/2000/svg">
  <path fill="#5AA6DC" d="M20.3,-31.1C27.9,-30.9,36.6,-28.5,41.6,-23C46.5,-17.4,47.8,-8.7,44.7,-1.8C41.7,5.2,34.3,10.4,34.4,24.7C34.5,38.9,42,62.3,37.5,64.4C33,66.5,16.5,47.4,0.1,47.2C-16.2,47,-32.4,65.6,-38.5,64.4C-44.6,63.2,-40.6,42.2,-38.5,28.1C-36.4,14.1,-36.3,7,-34.7,1C-33,-5.1,-29.7,-10.2,-27,-15.9C-24.3,-21.7,-22.1,-28.1,-17.7,-30.1C-13.3,-32.1,-6.7,-29.7,-0.1,-29.5C6.4,-29.3,12.8,-31.3,20.3,-31.1Z" transform="translate(100 100)" />
</svg>
