<?xml version="1.0" standalone="no"?>
<svg viewBox="0 0 200 200" xmlns="http://www.w3.org/2000/svg">
  <path fill="#5AA6DC" d="M42.3,-72.7C53.9,-66.5,61.9,-53.4,60.7,-40.1C59.4,-26.9,49.1,-13.4,48.6,-0.3C48.1,12.9,57.5,25.7,56.8,35.8C56.2,45.8,45.5,53,34.3,57C23.2,61,11.6,61.8,-2.1,65.5C-15.8,69.1,-31.6,75.6,-43,71.8C-54.4,67.9,-61.4,53.7,-66.4,40C-71.3,26.3,-74.3,13.2,-69.3,2.9C-64.3,-7.4,-51.5,-14.9,-45.2,-26.2C-38.8,-37.5,-39.1,-52.8,-32.6,-62C-26.2,-71.3,-13.1,-74.6,1.1,-76.5C15.3,-78.5,30.6,-79,42.3,-72.7Z" transform="translate(100 100)" />
</svg>
