<?xml version="1.0" standalone="no"?>
<svg viewBox="0 0 200 200" xmlns="http://www.w3.org/2000/svg">
  <path fill="#5AA6DC" d="M38.8,-67.6C52.8,-59.1,68.5,-53.9,75.1,-43.1C81.7,-32.4,79.3,-16.2,66.7,-7.3C54.2,1.7,31.4,3.3,21,7.6C10.7,11.9,12.8,18.8,11.3,29.2C9.9,39.6,5,53.6,1.4,51.1C-2.1,48.6,-4.2,29.7,-18.5,26.8C-32.9,23.8,-59.5,36.8,-73.1,35C-86.7,33.2,-87.3,16.6,-83.3,2.3C-79.3,-11.9,-70.6,-23.8,-58.6,-28.4C-46.6,-32.9,-31.2,-30.1,-20.8,-40.7C-10.5,-51.4,-5.3,-75.4,3.6,-81.6C12.4,-87.8,24.8,-76.1,38.8,-67.6Z" transform="translate(100 100)" />
</svg>
