<?xml version="1.0" standalone="no"?>
<svg viewBox="0 0 200 200" xmlns="http://www.w3.org/2000/svg">
  <path fill="#5AA6DC" d="M36,-71.4C42.2,-58.8,39.5,-40.1,42.3,-27.1C45.1,-14.2,53.3,-7.1,60.1,4C67,15.1,72.6,30.1,66.2,36.7C59.7,43.2,41.2,41.3,28.2,42.2C15.1,43.1,7.6,46.9,-1.4,49.3C-10.4,51.8,-20.9,53,-30.6,50.2C-40.3,47.3,-49.3,40.5,-50.5,31.5C-51.7,22.4,-45.1,11.2,-47,-1.1C-49,-13.5,-59.5,-26.9,-60.7,-40.2C-62,-53.6,-54.1,-66.8,-42.4,-76.2C-30.8,-85.7,-15.4,-91.3,-0.2,-90.9C14.9,-90.5,29.9,-84,36,-71.4Z" transform="translate(100 100)" />
</svg>
