<?xml version="1.0" standalone="no"?>
<svg viewBox="0 0 200 200" xmlns="http://www.w3.org/2000/svg">
  <path fill="#F15D5D" d="M43.8,-73.8C58.1,-67.6,72.1,-58.6,78.2,-45.9C84.3,-33.1,82.7,-16.6,80.2,-1.4C77.8,13.7,74.6,27.5,69.5,41.9C64.3,56.3,57.1,71.4,45.2,76.3C33.3,81.3,16.6,76.2,1.4,73.8C-13.9,71.5,-27.9,71.9,-41,67.7C-54.1,63.4,-66.5,54.5,-74.9,42.4C-83.3,30.3,-87.9,15.2,-84,2.3C-80,-10.6,-67.6,-21.2,-57.8,-30.9C-47.9,-40.5,-40.6,-49.1,-31.4,-58.3C-22.2,-67.4,-11.1,-77.2,1.8,-80.3C14.7,-83.5,29.5,-80,43.8,-73.8Z" transform="translate(100 100)" />
</svg>
