<?xml version="1.0" standalone="no"?>
<svg viewBox="0 0 200 200" xmlns="http://www.w3.org/2000/svg">
  <path fill="#F15D5D" d="M21.8,-35C30.2,-32.9,40.4,-31.1,52.7,-25.3C64.9,-19.5,79.2,-9.7,73.4,-3.4C67.5,3,41.7,6.1,31.1,14.8C20.6,23.5,25.4,38,22.8,52.5C20.2,67,10.1,81.5,-1.6,84.3C-13.3,87.2,-26.7,78.2,-28.9,63.5C-31.1,48.7,-22.2,28.2,-24.3,16.6C-26.4,5.1,-39.5,2.6,-46.3,-3.9C-53,-10.3,-53.4,-20.7,-49.3,-28.9C-45.3,-37,-36.8,-43.1,-27.8,-44.9C-18.9,-46.6,-9.4,-44.2,-1.4,-41.8C6.7,-39.4,13.4,-37.1,21.8,-35Z" transform="translate(100 100)" />
</svg>
