<?xml version="1.0" standalone="no"?>
<svg viewBox="0 0 200 200" xmlns="http://www.w3.org/2000/svg">
  <path fill="#F15D5D" d="M25.2,-47.2C31.7,-40,35.2,-31.2,35.4,-23C35.6,-14.9,32.6,-7.4,31.3,-0.7C30.1,6,30.6,12,29.4,18.5C28.3,25.1,25.5,32.2,20.3,39.8C15.1,47.5,7.6,55.6,-1.8,58.7C-11.1,61.7,-22.2,59.7,-35.6,56.8C-48.9,53.9,-64.6,50.1,-65.6,40.5C-66.6,30.9,-52.9,15.5,-52.7,0.1C-52.5,-15.2,-65.8,-30.4,-61.4,-34.2C-57.1,-38,-35.1,-30.3,-21.9,-33.6C-8.7,-37,-4.4,-51.3,2.5,-55.6C9.4,-60,18.8,-54.4,25.2,-47.2Z" transform="translate(100 100)" />
</svg>
