<?xml version="1.0" standalone="no"?>
<svg viewBox="0 0 200 200" xmlns="http://www.w3.org/2000/svg">
  <path fill="#F15D5D" d="M32.2,-52.9C35.4,-53.9,27.4,-32.5,35.8,-20C44.2,-7.5,68.9,-3.7,70.3,0.8C71.6,5.3,49.6,10.6,41.3,23.3C33,36,38.5,56.2,34,67C29.4,77.8,14.7,79.3,6.1,68.7C-2.5,58.2,-5,35.6,-15.6,28.3C-26.3,21,-45,28.9,-53.4,26.7C-61.8,24.5,-60,12.3,-58.3,0.9C-56.7,-10.4,-55.3,-20.8,-53.3,-34C-51.3,-47.3,-48.6,-63.5,-39.7,-59.2C-30.7,-54.8,-15.3,-30,-0.4,-29.3C14.5,-28.5,28.9,-51.9,32.2,-52.9Z" transform="translate(100 100)" />
</svg>
