<?xml version="1.0" standalone="no"?>
<svg viewBox="0 0 200 200" xmlns="http://www.w3.org/2000/svg">
  <path fill="#F15D5D" d="M20.7,-46.9C25.3,-33.1,26.5,-24.5,33,-17.6C39.6,-10.7,51.6,-5.3,59,4.3C66.4,13.9,69.2,27.7,61.8,33.2C54.4,38.7,36.7,35.9,24.7,38.6C12.7,41.2,6.4,49.3,-4.7,57.4C-15.7,65.4,-31.4,73.5,-43,70.6C-54.5,67.7,-61.9,53.9,-63,40.3C-64.2,26.7,-59.1,13.3,-61.1,-1.2C-63.1,-15.7,-72.3,-31.3,-66.5,-36.9C-60.7,-42.4,-39.9,-37.8,-26.4,-46.5C-12.8,-55.1,-6.4,-77,0.8,-78.4C8,-79.9,16,-60.8,20.7,-46.9Z" transform="translate(100 100)" />
</svg>
