<?xml version="1.0" standalone="no"?>
<svg viewBox="0 0 200 200" xmlns="http://www.w3.org/2000/svg">
  <path fill="#FFCF01" d="M25.4,-49.3C35.1,-38.5,46.4,-35.9,55.2,-29.1C64,-22.2,70.1,-11.1,61.9,-4.8C53.6,1.6,30.9,3.2,22,9.8C13.1,16.4,18,28,16.6,42.4C15.2,56.8,7.6,73.9,-1.1,75.9C-9.9,77.8,-19.8,64.6,-31.3,56.1C-42.9,47.6,-56.1,43.8,-62.8,35.2C-69.6,26.7,-69.9,13.3,-66.9,1.7C-63.9,-9.8,-57.5,-19.7,-46.6,-21.2C-35.8,-22.6,-20.5,-15.8,-11.9,-27.2C-3.4,-38.7,-1.7,-68.6,3.1,-73.9C7.9,-79.3,15.8,-60.2,25.4,-49.3Z" transform="translate(100 100)" />
</svg>
