<?xml version="1.0" standalone="no"?>
<svg viewBox="0 0 200 200" xmlns="http://www.w3.org/2000/svg">
  <path fill="#FFCF01" d="M8.7,-19.4C12.9,-12.7,18.9,-13.6,27.2,-11.6C35.5,-9.6,46,-4.8,43,-1.8C39.9,1.3,23.3,2.6,21.9,16.5C20.5,30.4,34.4,56.9,33.2,61.4C32.1,65.9,16.1,48.3,2.3,44.3C-11.4,40.2,-22.8,49.7,-32.7,50.3C-42.7,51,-51.2,42.7,-57.4,32.8C-63.6,23,-67.5,11.5,-69.8,-1.4C-72.2,-14.2,-73,-28.4,-68.8,-41.7C-64.6,-55.1,-55.4,-67.5,-43.1,-69.6C-30.8,-71.6,-15.4,-63.2,-6.6,-51.9C2.3,-40.5,4.6,-26.2,8.7,-19.4Z" transform="translate(100 100)" />
</svg>
