<?xml version="1.0" standalone="no"?>
<svg viewBox="0 0 200 200" xmlns="http://www.w3.org/2000/svg">
  <path fill="#FFCF01" d="M11.2,-15.1C19.5,-14.6,34.7,-21.7,47.5,-20.4C60.3,-19.2,70.7,-9.6,74.2,2C77.7,13.6,74.3,27.3,66.4,37C58.5,46.8,46.1,52.6,34.3,49.4C22.5,46.3,11.2,34.2,-0.7,35.4C-12.7,36.7,-25.4,51.4,-38,55C-50.5,58.5,-62.9,51,-58.3,40C-53.7,29,-32.2,14.5,-30.3,1.1C-28.4,-12.3,-46.1,-24.6,-51,-36C-55.8,-47.4,-47.7,-58,-37,-57C-26.4,-56.1,-13.2,-43.7,-5.9,-33.6C1.5,-23.4,2.9,-15.5,11.2,-15.1Z" transform="translate(100 100)" />
</svg>
