<?xml version="1.0" standalone="no"?>
<svg viewBox="0 0 200 200" xmlns="http://www.w3.org/2000/svg">
  <path fill="#FFCF01" d="M18.9,-36.2C30.1,-26.4,48.4,-32.5,56.5,-29.1C64.6,-25.7,62.5,-12.8,56.2,-3.6C49.9,5.6,39.5,11.2,34.7,20.4C30,29.7,31,42.6,26.2,56C21.4,69.4,10.7,83.4,-1.1,85.2C-12.8,87,-25.6,76.8,-30.1,63.1C-34.5,49.5,-30.6,32.4,-33.4,21.3C-36.3,10.2,-45.9,5.1,-42.3,2.1C-38.6,-0.9,-21.6,-1.8,-18,-11.7C-14.5,-21.6,-24.5,-40.6,-23.7,-56.4C-23,-72.1,-11.5,-84.6,-3.8,-78.1C3.9,-71.5,7.8,-45.9,18.9,-36.2Z" transform="translate(100 100)" />
</svg>
