<?xml version="1.0" standalone="no"?>
<svg viewBox="0 0 200 200" xmlns="http://www.w3.org/2000/svg">
  <path fill="#FFCF01" d="M24.2,-45.8C29.7,-38.8,31.2,-28.9,39.6,-20.7C47.9,-12.6,63.1,-6.3,68.6,3.2C74,12.6,69.8,25.2,61.6,33.6C53.4,42.1,41.3,46.3,30.4,48.1C19.5,49.9,9.7,49.2,-1.6,52C-13,54.8,-26,61.1,-35.8,58.7C-45.6,56.3,-52.2,45.1,-58.8,33.9C-65.4,22.6,-71.9,11.3,-65.8,3.6C-59.6,-4.2,-40.8,-8.4,-33,-17.7C-25.3,-26.9,-28.6,-41.1,-24.9,-49.1C-21.3,-57.1,-10.6,-59,-0.6,-57.9C9.4,-56.8,18.8,-52.8,24.2,-45.8Z" transform="translate(100 100)" />
</svg>
